<mxfile host="app.diagrams.net" modified="2022-05-15T09:40:40.263Z" agent="5.0 (Macintosh; Intel Mac OS X 10_15_7) AppleWebKit/537.36 (KHTML, like Gecko) Chrome/101.0.4951.54 Safari/537.36" etag="AxgBGEy83KZJJajvjX0S" version="17.4.6" type="github">
  <diagram id="ruiRzwThZQvlLAZ6Hcbm" name="Page-1">
    <mxGraphModel dx="1042" dy="507" grid="1" gridSize="10" guides="1" tooltips="1" connect="1" arrows="1" fold="1" page="1" pageScale="1" pageWidth="827" pageHeight="1169" math="0" shadow="0">
      <root>
        <mxCell id="0" />
        <mxCell id="1" parent="0" />
        <mxCell id="ScFavRvI6ydRiICVfUeu-1" value="Data Source" style="rounded=1;whiteSpace=wrap;html=1;dashed=1;verticalAlign=top;" vertex="1" parent="1">
          <mxGeometry x="40" y="90" width="190" height="400" as="geometry" />
        </mxCell>
        <mxCell id="ScFavRvI6ydRiICVfUeu-2" value="IoT" style="outlineConnect=0;dashed=0;verticalLabelPosition=bottom;verticalAlign=top;align=center;html=1;shape=mxgraph.aws3.aws_iot;fillColor=#5294CF;gradientColor=none;" vertex="1" parent="1">
          <mxGeometry x="101.25" y="130" width="67.5" height="81" as="geometry" />
        </mxCell>
        <mxCell id="ScFavRvI6ydRiICVfUeu-4" value="Agent" style="sketch=0;outlineConnect=0;fontColor=#232F3E;gradientColor=none;fillColor=#067F68;strokeColor=none;dashed=0;verticalLabelPosition=bottom;verticalAlign=top;align=center;html=1;fontSize=12;fontStyle=0;aspect=fixed;shape=mxgraph.aws4.agent2;" vertex="1" parent="1">
          <mxGeometry x="101.25" y="251" width="78" height="78" as="geometry" />
        </mxCell>
        <mxCell id="ScFavRvI6ydRiICVfUeu-5" value="" style="shape=image;verticalLabelPosition=bottom;labelBackgroundColor=default;verticalAlign=top;aspect=fixed;imageAspect=0;image=data:image/png,iVBORw0KGgoAAAANSUhEUgAAATgAAABaCAYAAAAsNEqPAAAMbGlDQ1BJQ0MgUHJvZmlsZQAASImVVwdYU8kWnluSkJDQAqFICb0JIr1ICaEFEJAq2AhJIKHEmBBUbFgWFVy7iGBFV0UUXQsgi4rYy6LY+2JBRVkXC4qi8iYkoOu+8r3zfXPnv2fO/KfcmXvvAKDZy5VIclEtAPLE+dL48GDm2NQ0JukpwAENqAMnoM/lySSsuLhoAGWw/7u8vwEQRX/VScH1z/H/Kjp8gYwHADIe4gy+jJcHcTMA+HqeRJoPAFGht5yaL1HgIoh1pTBAiFcrcJYS71TgDCVuGrBJjGdDfBkANSqXK80CQOMe1DMLeFmQR+MzxC5ivkgMgOZwiAN4Qi4fYkXsw/PyJitwOcR20F4CMYwHeGd8x5n1N/6MIX4uN2sIK/MaELUQkUySy53+f5bmf0ternzQhw1sVKE0Il6RP6zhrZzJUQpMhbhLnBETq6g1xL0ivrLuAKAUoTwiSWmPGvNkbFg/wIDYhc8NiYLYGOIwcW5MtEqfkSkK40AMVws6TZTPSYTYAOJFAllogspms3RyvMoXWpcpZbNU+rNc6YBfha8H8pwklor/jVDAUfFjGoXCxBSIKRBbFYiSYyDWgNhZlpMQpbIZVShkxwzaSOXxivitII4XiMODlfxYQaY0LF5lX5InG8wX2ywUcWJUeH++MDFCWR/sJI87ED/MBbssELOSBnkEsrHRg7nwBSGhytyx5wJxUoKKp1eSHxyvnItTJLlxKnvcQpAbrtBbQOwuK0hQzcWT8+HiVPLjmZL8uERlnHhhNjcyThkPvhxEAzYIAUwghy0DTAbZQNTaVd8F75QjYYALpCALCOAOVWoGZ6QMjIjhNQEUgj8hEgDZ0LzggVEBKID6L0Na5dUJZA6MFgzMyAFPIc4DUSAX3ssHZomHvCWDJ1Aj+od3Lmw8GG8ubIrxf68f1H7TsKAmWqWRD3pkag5aEkOJIcQIYhjRHjfCA3A/PBpeg2Bzxb1xn8E8vtkTnhLaCI8I1wnthNuTRPOkP0Q5GrRD/jBVLTK+rwVuAzk98GDcH7JDZpyBGwEn3B36YeGB0LMH1LJVcSuqwvyB+28ZfPc0VHZkFzJK1icHke1+nKnhoOExxKKo9ff1UcaaMVRv9tDIj/7Z31WfD/uoHy2xRdgB7Ax2HDuHNWH1gIkdwxqwi9gRBR5aXU8GVtegt/iBeHIgj+gf/gafrKKSMpcal06Xz8qxfMG0fMXGY0+WTJeKsoT5TBb8OgiYHDHPeTjT1cXVFQDFt0b5+nrLGPiGIIzz33Tz4R73F/f39zd900V9AuCgOdz+7d90tlfgawK+p8+u4MmlBUodrrgQ4FtCE+40Q2AKLIEdzMcVeAI/EARCQSSIBYkgFUyE0QvhOpeCqWAmmAuKQSlYDtaACrAJbAU7wR6wH9SDJnAcnAYXwGVwHdyFq6cDvATd4D3oQxCEhNAQOmKImCHWiCPiingjAUgoEo3EI6lIOpKFiBE5MhOZj5QiK5EKZAtSjfyKHEaOI+eQNuQ28hDpRN4gn1AMpaK6qAlqg45AvVEWGoUmohPQLHQKWoguQJei5WgVuhutQ4+jF9DraDv6Eu3BAKaOMTBzzAnzxthYLJaGZWJSbDZWgpVhVVgt1gif81WsHevCPuJEnI4zcSe4giPwJJyHT8Fn40vwCnwnXoefxK/iD/Fu/CuBRjAmOBJ8CRzCWEIWYSqhmFBG2E44RDgF91IH4T2RSGQQbYlecC+mErOJM4hLiBuIe4nNxDbiY2IPiUQyJDmS/EmxJC4pn1RMWkfaTTpGukLqIPWqqauZqbmqhamlqYnV5qmVqe1SO6p2Re2ZWh9Zi2xN9iXHkvnk6eRl5G3kRvIlcge5j6JNsaX4UxIp2ZS5lHJKLeUU5R7lrbq6uoW6j/oYdZF6kXq5+j71s+oP1T9SdagOVDZ1PFVOXUrdQW2m3qa+pdFoNrQgWhotn7aUVk07QXtA69WgazhrcDT4GnM0KjXqNK5ovNIka1prsjQnahZqlmke0Lyk2aVF1rLRYmtxtWZrVWod1rqp1aNN1x6pHaudp71Ee5f2Oe3nOiQdG51QHb7OAp2tOid0HtMxuiWdTefR59O30U/RO3SJura6HN1s3VLdPbqtut16Onruesl60/Qq9Y7otTMwhg2Dw8hlLGPsZ9xgfNI30WfpC/QX69fqX9H/YDDMIMhAYFBisNfgusEnQ6ZhqGGO4QrDesP7RriRg9EYo6lGG41OGXUN0x3mN4w3rGTY/mF3jFFjB+N44xnGW40vGveYmJqEm0hM1pmcMOkyZZgGmWabrjY9atppRjcLMBOZrTY7ZvaCqcdkMXOZ5cyTzG5zY/MIc7n5FvNW8z4LW4ski3kWey3uW1IsvS0zLVdbtlh2W5lZjbaaaVVjdceabO1tLbRea33G+oONrU2KzUKbepvntga2HNtC2xrbe3Y0u0C7KXZVdtfsifbe9jn2G+wvO6AOHg5Ch0qHS46oo6ejyHGDY9twwnCf4eLhVcNvOlGdWE4FTjVOD50ZztHO85zrnV+NsBqRNmLFiDMjvrp4uOS6bHO5O1JnZOTIeSMbR75xdXDluVa6XnOjuYW5zXFrcHvt7ugucN/ofsuD7jHaY6FHi8cXTy9PqWetZ6eXlVe613qvm9663nHeS7zP+hB8gn3m+DT5fPT19M333e/7l5+TX47fLr/no2xHCUZtG/XY38Kf67/Fvz2AGZAesDmgPdA8kBtYFfgoyDKIH7Q96BnLnpXN2s16FewSLA0+FPyB7cuexW4OwULCQ0pCWkN1QpNCK0IfhFmEZYXVhHWHe4TPCG+OIERERayIuMkx4fA41ZzuSK/IWZEno6hRCVEVUY+iHaKl0Y2j0dGRo1eNvhdjHSOOqY8FsZzYVbH342zjpsT9NoY4Jm5M5Zin8SPjZ8afSaAnTErYlfA+MThxWeLdJLskeVJLsmby+OTq5A8pISkrU9rHjhg7a+yFVKNUUWpDGiktOW17Ws+40HFrxnWM9xhfPP7GBNsJ0yacm2g0MXfikUmak7iTDqQT0lPSd6V/5sZyq7g9GZyM9RndPDZvLe8lP4i/mt8p8BesFDzL9M9cmfk8yz9rVVanMFBYJuwSsUUVotfZEdmbsj/kxObsyOnPTcndm6eWl553WKwjzhGfnGw6edrkNomjpFjSPsV3ypop3dIo6XYZIpsga8jXhT/1F+V28p/kDwsCCioLeqcmTz0wTXuaeNrF6Q7TF09/VhhW+MsMfAZvRstM85lzZz6cxZq1ZTYyO2N2yxzLOQvmdBSFF+2cS5mbM/f3eS7zVs57Nz9lfuMCkwVFCx7/FP5TTbFGsbT45kK/hZsW4YtEi1oXuy1et/hrCb/kfKlLaVnp5yW8Jed/Hvlz+c/9SzOXti7zXLZxOXG5ePmNFYErdq7UXlm48vGq0avqVjNXl6x+t2bSmnNl7mWb1lLWyte2l0eXN6yzWrd83ecKYcX1yuDKveuN1y9e/2EDf8OVjUEbazeZbCrd9GmzaPOtLeFb6qpsqsq2ErcWbH26LXnbmV+8f6nebrS9dPuXHeId7Tvjd56s9qqu3mW8a1kNWiOv6dw9fvflPSF7GmqdarfsZewt3Qf2yfe9+DX91xv7o/a3HPA+UHvQ+uD6Q/RDJXVI3fS67nphfXtDakPb4cjDLY1+jYd+c/5tR5N5U+URvSPLjlKOLjjaf6zwWE+zpLnreNbxxy2TWu6eGHvi2skxJ1tPRZ06ezrs9IkzrDPHzvqfbTrne+7wee/z9Rc8L9Rd9Lh46HeP3w+1erbWXfK61HDZ53Jj26i2o1cCrxy/GnL19DXOtQvXY6633Ui6cevm+Jvtt/i3nt/Ovf36TsGdvrtF9wj3Su5r3S97YPyg6g/7P/a2e7YfeRjy8OKjhEd3H/Mev3wie/K5Y8FT2tOyZ2bPqp+7Pm/qDOu8/GLci46Xkpd9XcV/av+5/pXdq4N/Bf11sXtsd8dr6ev+N0veGr7d8c79XUtPXM+D93nv+z6U9Br27vzo/fHMp5RPz/qmfiZ9Lv9i/6Xxa9TXe/15/f0SrpQ78CuAwYZmZgLwZgcAtFQA6PDcRhmnPAsOCKI8vw4g8J+w8rw4IJ4A1MJO8RvPbgZgH2w2RZAbNsUvfGIQQN3chppKZJlurkouKjwJEXr7+9+aAEBqBOCLtL+/b0N//5dtMNjbADRPUZ5BFUKEZ4bNIQp0e9WEIvCDKM+n3+X4Yw8UEbiDH/t/AROckEKrBh2MAAAAimVYSWZNTQAqAAAACAAEARoABQAAAAEAAAA+ARsABQAAAAEAAABGASgAAwAAAAEAAgAAh2kABAAAAAEAAABOAAAAAAAAAJAAAAABAAAAkAAAAAEAA5KGAAcAAAASAAAAeKACAAQAAAABAAABOKADAAQAAAABAAAAWgAAAABBU0NJSQAAAFNjcmVlbnNob3S7wm5MAAAACXBIWXMAABYlAAAWJQFJUiTwAAAB1WlUWHRYTUw6Y29tLmFkb2JlLnhtcAAAAAAAPHg6eG1wbWV0YSB4bWxuczp4PSJhZG9iZTpuczptZXRhLyIgeDp4bXB0az0iWE1QIENvcmUgNi4wLjAiPgogICA8cmRmOlJERiB4bWxuczpyZGY9Imh0dHA6Ly93d3cudzMub3JnLzE5OTkvMDIvMjItcmRmLXN5bnRheC1ucyMiPgogICAgICA8cmRmOkRlc2NyaXB0aW9uIHJkZjphYm91dD0iIgogICAgICAgICAgICB4bWxuczpleGlmPSJodHRwOi8vbnMuYWRvYmUuY29tL2V4aWYvMS4wLyI+CiAgICAgICAgIDxleGlmOlBpeGVsWURpbWVuc2lvbj45MDwvZXhpZjpQaXhlbFlEaW1lbnNpb24+CiAgICAgICAgIDxleGlmOlBpeGVsWERpbWVuc2lvbj4zMTI8L2V4aWY6UGl4ZWxYRGltZW5zaW9uPgogICAgICAgICA8ZXhpZjpVc2VyQ29tbWVudD5TY3JlZW5zaG90PC9leGlmOlVzZXJDb21tZW50PgogICAgICA8L3JkZjpEZXNjcmlwdGlvbj4KICAgPC9yZGY6UkRGPgo8L3g6eG1wbWV0YT4KMZ+wHgAAABxpRE9UAAAAAgAAAAAAAAAtAAAAKAAAAC0AAAAtAAAPOgxrbcEAAA8GSURBVHgB7J17cFTVHcd/u3mRhCRkE0JekJhISRCtFGx9EcSpBKdObbEzrQ+c6Uw703+KOG3wj/qnj7F/iE5n7CBoq2hbZxStiqIOqFAEK5GGCAklJBsIeW7IJiGbTTaPnt8999x7zt2b3b0BzLL93Zlw379zzvfu/fA95/7uruvBBx6YBppIAVKAFEhABVwEuAS8qtQkUoAU0BQgwNEHgRQgBRJWAQJcwl5aahgpQAoQ4OgzQAqQAgmrAAEuYS8tNYwUIAUIcPQZIAVIgYRVgACXsJeWGkYKkAIEOPoMkAKkQMIqQIBL2EtLDSMFSAECHH0GSAFSIGEVIMAl7KWlhpECpAABjj4DpAApkLAKEOAS9tJSw0gBUoAAR58BUoAUSFgFCHAJe2mpYaQAKeAYcD98LDbRxgMAIz6AwAUAfwdA14no5925NQ2mp13sQDdMg4v9uQHYurGsbXNB0D8NA94QDHdNwEDrGIRGpyIGz1uWDdfcXWTE1eJr5fAyMD4vh5XLQo35x2H43BBcONkHwb6RiLFpJylACsSvAo4Bd9djDAbIIPlrMmNY7/h6Gpo+jizEnVvTNZgJAGmA06E2Pc1gpy+L/TgPDk5Bx5fD0NM4M4jyqhjgNpSw8zk4xfnTLgSb2KbDTgIsHtd7tAN6vvBGrjjtJQVIgbhUwDHg0MG5NNBovkfjXKzrA16A+jdm1mHd1ozoDs4CIOH4BtqC0Px2r21wz7Ic5uB0wCnnM6hZAcfaJgAogOhv7oXznzTbxqaNpAApEL8KOAac4uCEc3Mwb3wXoPukbP9McdZtnW8BHAusA4jjlLktBVD6uovPWz7oA1/zRTOgvsQBt5itCbfGj+cx7Z2bWo4Ler9qh74jrWGxaQMpQArErwKOAccdnOMeqt6j5Y7pq9emYKgzHHJr67KYUjJwcDncUVkdlnaMDsITfz8PI91BRXFP1QIor0XA8djanIHS7ALroLQAUDmenXvm9SMwPjBzV1gplFZIAVJgzhVwDDjFwYnqCwcXYZ07Ig6VzuNsPO7DCXG0MV9bl8OWOdRmGnOTgWcs4zm6s+tpGIT2/WpXVQPchjIe29oltXOEFhAK5+er90Lf4dNGfWmBFCAF4lsBx4CbzRic6bg44EYHAA7vGA9TpqZuAbOGOuCYmxJOSwDGjMO7mrJzE25r6FwQTr15VontqcqFslodcMKlxezgTAc52jME7W8eUWLTCilACsSvAo4Bpzg44dwizGXnJgPr8ItBGGXpHvJUU5cbfcyNuSsBOjsHFwpMwX+2/1cOCxxw17BtHLAcjNIyQk9xcmwfc3r8eH4cgndyfBJO7/hEiU0rpAApEL8KOAZcrHlwvMkqKASYcH7sH2PgPzepKLPm956IY27mmBnG1UEnAU+Lz9brnzupxM2t8kDZ+nJnY25Wh8fiTjHAteyIkuuilEwrpAApMJcKOAac4uBEzYWDk9ZN52Y6LgEgDrhR8J+1Ai4/CuBMqEUG3DeiJtpcA1xthQY4+/N0l4YOTwKnmWjMu8QccHuV2LRCCpAC8auAY8Ct/S1AagYCgXcQsZNpzYPTQKaBAo+TAKenc+D+k+8Fobc5pChzy+Z8cKdg15ADxYzD13nXUloO61qyfazcxp1NEBoxH2Is+A5zcBsqOeDk+hjlINjMLqko13SMPO5UaBLO7PhQqTOtkAKkQPwq4Bhwq+93QS6O13Oyhc25A0Kw6cCQHJEAB87PfjkGrQfUdI4b7vdAVnEqC84hpsxZHAOWFqclx8VjWt5pgyHvkKF6ZnEWVP5suRrXAHB4Pa3OTcTngNtjxKUFUoAUiG8FHAOuuhag9EbONdE0s4dq74QEqAzoMYANtE1A45tqUu61d+VAwQ0ZLCx3TOZ5rAQ9vcOAnC04OVg7D3VBz9EeUT1wuV1w3W9uAldSsglJK+AQmqxc451UxenxfdhFbd35vhGXFkgBUiC+FXAMuKIVACvuQeBIDcNVKzBsAGQCzgXjLF/2yAssX0SaFq3IgMpa9iRVB5wBsyiOTYCQP6Vl8DztB+8H6lsHJXdWgGdFccR6hgNOBTY6uNYd70k1pkVSgBSIZwUcAw4bU70eoGQl4kRwTjgu3QVpbgj3iu28y2kChB937BU/jPSZY2UYe9m9eeCpzNSclga4mBJzeXye1uHWvg2k6ZVGDGdMKfNT4doHVoE7LYVtE/XCepj1NAEs9stx+VPUtp3sXTOaSAFS4KpQYFaAw5at+oULPOWxOTfhsGRg4XLX10E4s384TKhbfleuOS0DPghMG0co4lqBhaA6t88LF75R32jIqsiDJT+6npWnxjPBKx40CMBxEHNwCsC9E1Zf2kAKXG4FysrKICMjA3w+H/T19V3u8P838WYNOFSokI3bX3dPEltSnZAAjwkOFRQmkNxwas8ge0F+NEzwwhuzYcm6hYrDEnHN83lcDk65DDeEAhNw6q/HYGpC/a64+WUeKFpXDcmZ81hsCWisDda4SrvY/qmxSfC+9HZYXedyQ01NDaxhf/L02q5d0N7eLm/61pfxBn1o0yal3IMHDsAB9kdTZAU2Md1qN2wwDsLruXcvpScZgjhYuCTAYTnZxS4o+W4SLCh1Q3pukgKkWBxYcGgK6nd021Y5qyQd8q/LgaySDEjNSWPHiC4jd1j8+9xUsMlOb6h1ANrfbwqL7U5JAs/KMsheWgSpC7I00PG6sljWdBEBPjbHNxnad74VFm8uN2y87z7YuHGjUoUnn3gCmprC260cdIVXqqur4Q+PP66Usnv3btj9Vnzpp1QwDlbsdMNqPbplCzm5WVyfSwacXGb6AhekZaMrwlw5N2QWJMH8gmQ2T4HkDN3p2XQ1u4+NQNun6gMHOS4up+WkQmoWjp8Bc18pkLEoA9IXZkJ6QSbLnUtmWyU3Z4yxuaHt7UYY6fBr59n9kzQvBZLSMTUFHZyYMJZl0uoNEPKb6SeWI+ZklQA3J7JfsULtricWtm3bNqg/evSKlZuogS8r4CKJlLkwGQqvT4fClZnsMMmJ6Q7p9B6f7Xe5RYqJ+1xJLshgkCu4qQSyyq2venHotfztKxjrT8yvObK7IcjBRfvUxO/+Daxrau3aY23j4ZrGr2oz1+xbA5yoQn5VOpStyWFuDF0XB50YQ/M1BaD9Mx9MBNVXuMS50eYF3y+Fgh9gFjLvwgpXh/O+o+3g+3cb+80FdUwuWsx430+Ai/cr5Lx+Tz39NCxZssQ4sb6+HrY9+6yxTguxK/CtA05U7Zp1ubBoZTZb1SGnd10ngtPQ/mkv9DfPriuISb3lP70BMooxnw7H1PSHB2x5fIi9Hna4BYZPd4lqXPVzAtxVfwnDGoBPT/Hh0cKFC7VxN3rAECZRzBvmDHBYw/yq+VB5d4H+YEIfQ9OBNDY4AYH+MRj1jUGgN8i+pTcAoYvqu6uRWlly13LIWVZoeejBn5oG+y/CaOcADJ/pgomRMZgcCcJUSM3HixQ7nvYR4OLpalBd4k0Bx4DDn/YTrsvsCspdTb6MPxsY6J+E0QtT7Of9QtDzDdtgM1XevQjyqrMVp2WNy52YSOlwsRQQFrdvlP184BgMe/3sz/4BxbJfr2WJvanaU1LxCpbotoa9eYFjgezLAEJDARi/MAyhwYsQ8HbCaIf9E16bpszJJgLcnMhOhV4lCjgG3Lq6eaxpAmgMOsxx4RiamVOmdwmlriEe39/Cvmn3n/1hsiTPS4Lrf1kOSWnmmJwJON3VIXy0cgTkWPlSfP8pH3R8fCosdmapBxbfu1qrm5Gyop3H6yzaIeYib29Kbx/CcLihGQa+qA+LHS8bCHDxciWoHvGogHPAsZ/2EwAyoIGAk4Aj9gtwiHU8/siz7WE6RP7dUhmeKthEXOHKTvzps7DYBbctg9wb8auSELxYTwFJHcTadhXYU8bXOvGyR1vPgu+jT8NiX4kNOO7yvVWrtDEYTJaVJ8xtO/D554CDzoEAd8SXA3CizNWrVwPmYYkJy8CEYe3P64WDBw+KXVHndvlc1jy4Vay8mjVroHr5ci1rXwTF8jAlAsu71Cx+HM/CROjlrF1YnjyhnlgWloFJyEJT+Ri7ZRwfy8/Pt9vlaBvqYTdZ8wfPsjruYsm+dtOlJno7Tci21g3rhLmNct7lzTffDLfffjsUFhVBXl4eDPr90HH+PPR0d0PD8eNwvKHBrinatsWLF8Nt7Nxidm5RcTEUsXlXVxd0dXZCL7tOjez8hgjnWwM7BtwddWaah3A8CA/DwUUAHR7XzvLduo8NWuvBXNxSLZlXBSUHkgEnw1lZQceP6z7YAhcazimx0/KzoOznNTqApXpKYBOgROcmYGntwva9uxfGOq/cwwm8ETFFAIEVbcIbEZ+q4YfqUgCHZWJKAt4ksUwIghe3b1c+zDOdFwlwWC7eKFaA28XCAXa8gWKFjxwDtUFNsbxoE8bf9eqrMUEc6y7/RxAt9kz7H3rwQdtdr73+urIdrzOmidhNl3L9MV6k62RXnl3bRQrL0qVLYdPDD0NFRYXdqca2ffv2wV9eftlYxwWPxwPr16+H9bW1kJqKeakzT4cOHYI/v/DCzAdIe2YBuCx2unA82HWUlnG7FXACJGw7BxX7sss3zsPwefX1rGt/XAY5FTmK05LBJrqoIoYVQKJc71tHIdClJvZW/qoW3Kk4dmgBnOHUeBs0wGn15Ovc8XGnN9bbD7739sB0KPYHHZLOERfRQW159NGYbng5EMImn507mzcZEC5YJpbtdEJ3tZ2VHQk6M904eC7eJLFAR9QLXdZzLNE1VjfnBKCiDDFHmER71c3uJhfnO5knEuDwesfyn7PQZ//+/fDySy9pqyUlJbB582YoKS0Vu2Oaz6SffLJjwK2tYw8EDJCZ0BKAUQEkwU8Ch+/ERWj7WB28L751ERTetEhxgoYrNMoT4GFzDaQqsPD4gcYO6PlcfU2p9Ce3wrxivJGl+grYsTimc2P7rV1YrRxe7uCBf8EIuwEu54Q343PPP+/ohpfLxxvS6ibE/6jycfIyws0pZOTzcRmhg+XMBDk7wH3E3FgVuxFicW7W8rCcLY88MmN54njU88mnnpoVuEUMLAvbhm20mwhw5jAG6oNaoSZOpz8+8wz09/fPCm5YFv4HH+3d5v8BAAD//6d+tvkAABbESURBVO2de5QXxZXH7wzMMA/n/YABZmBAXiKMCBESBXXDMSi68ZVNUHGzZxM17nGFnCTnxMf+ozHG3Q0+1hejx5wYiZ5dPXpUwGQXT0QSSWBXxEURcQbkNQ8cBpgH84Ctb/evuqvqd7t/3b9hdJytOuc33V19696q212f363q+vVkXH/ddacoRrrwx8V0ijLo1KkMUSrT2Xe2zDHkpIwqf+JIH733zCea1eIzi2jS5bVCr9QpbEA/o5dgX5xztsp55HXua6O9L/9Z012xcBYVzZrs1cWrU0LHSc8Or1e2r2vXx9S24b803QM5yMvLozvvuosmTJiQpKazs5O2bt1KH+zYQS0tLc75GWedRTNmzHA+SQWUjJ/dey998MEHSo6/C5sPPvQQYWsm2Nu6ZYtjD+Vhq6KigpZceinV1NSY4o4N2OISyqJtYQk2nI9oIxL8MGHiRJo7dy5bvz179tCdd9wRqDLMn7CDtkEHPrCFti1ctIj1J3y+csUK1tYiUaZclI2S5s2bx/oO1/em73+fVfGb557T8lH3ID9ffc01dPXVV2vyYddfExQH3HV66aWX6KUXXzRFnWNcU5RRE+on844fP07vvvsuNTY0UFNTE9XW1tKZU6bQ7Nmz1SLe/v59+2jc+PHecYMo98nu3bRbfE6ePElTp051PuOrqz0ZdWeFuEatif6h5sv9jLiAW/SjEhdwDGAkCHyACMAFAGv7M7vpRHuPrAdlnZFFZ//92Rq4PIh5AFLgJ/S6oEtAVIAO8n3dvbT7aR1CBVOrqXLxPCEvy7vgBNgkLF2QhgBOQLXvWAe1rHnWq/NAd7ibEzr37t1LTz7xhNMRORtLliyhG5Yv5045eWE3+M233EILFy7UysLes7/+dSAUIRxkM8gW13FUo6uffJLeeustNcvbB3xQTw6qYZ2P8ydA8qSwBbgFpbkCQjfffHMSVMNsBelS89EOAMH8MkGd4DeAlktfNsDJNmzatIl+u2YNHTlyRGZ526VLl9Ky667zjs2d5uZmeu3VV2nDhg3mKed42bJltPTyy5POvSrKvPD880n5MiMNwJUlAOeDRQOHjNoc4CRkEHEpkRbkd/57Ix3b1yHr4Wzn3D7Xh2cCWF4UqJXX9TkgTMgDWDsffV3TmzuugsZ+c5E4pUeEDuA0O9AroZfcPtg59OS/abrTPQiKpPBtuOqXvyR0grCETrly5UpWJA50Wltb6Y6f/jSlPRhaLqD6DQFXNSHqQ33NFAa4oPqpOuCfu+6+Owly8MuK229Pqi/nz1QgUe0hKrtJQE5NYVGcKsftB8ENsmFwx/kvI+De27aNHnjgAVQ/MP34Jz+huro69vwjDz9MmzdvZs/JTHwJIeJWE8qgbFCKDbgLflQmdOmg8I/dCMiBkgaOZPmd/9FAxw3A1f0joqyEjiSgJYNHi/AUsO567DWtvQBc1TcvdKNDodcZkjry4UCT7fLtZFDT6tMDuCBAYVgkh6RaI5iDlT/8oTOcM08FAYQDFIZ8QZGEqRfHGN6Wl5drp264/nrtGAdBgHtj/Xp69tloUTAg8bP77kvSvWrVqqSIjANUKpCYirnhV1z/QCdgi3pjCGymKHX6sgGusbGR7rrzTrOpScfnn38+/eDWW5PyN4pIHlF2qlQ7aRLdc889mhiGtHeHTIXEBtz8H5RRVv7IpIgMEZoXbQFSGqCSAffJur3UtlMPZWd+bw6NyMsWDRDyCrAk9JytoleN3Fx5F1gNv/od9XV2e44YWZBHNcsv9wHnRXKocwKcil4ObDKya1od/G3hGYywww0V4w6J0IHQkdCh1BQEOBNOiN4QDcVJHFQ5exzggqKvMPvcsJODJFcvDrxxbcW9JrgWACXgbKaour5sgFsjhqVrX9dHTWbbcYwph/t+/vOkU088/ji9/fbbSflmRq7wbX19vZbd0dFBN990k5anHsQG3Mxri6l4Qo4BIBdIbuSm7AdGemKot6WFDmw6oNaFJl05nc6owUMME4guuFzQ+UNHD06evAusA6+/Q517mjTd45ddSiOKi0WeK5Nyzk0BngdbUbZ59UOa3nQPTle0wOnhgIN6mh0naHgZ1iYOOJw9DnBhk+VBNqPqMeGNeUUMveMkzlZUKEk76MDc3OHGjRudeVUpF7Y1r1OY36JejyB7cdvM3W+PP/YYYf4tVSoqKqJHhayZcJ1wvaKkhx95hEpLSzXRsC+y2ICb9FeFVDXnDB9wSqSlgiA8gsug9sbjtPvlj7WKjr1wIpXVjRV5EnB8hJUcuenyhzfvoLatOzXd5RedR/lnTREPPRKAc+ot9hWQ+XYlpEV058j79WhevUrTm+6B2SGhJ+xCBdnhhp0ccBDtrXrwwSA1A8r/jRhyrhdDTzXF7ThqWXUfEdFq41ub6/AmFFQdA9mPAzguKoftOHCDvNkWrr2QQxoKgLv//vvp/e3b3Qql+Gu2DeJx7nsOsGHlYwOuqCabZn6rIgEGBRYaOCRwXFD44PBB0dvZT+/Xv6e5o2BiMU24YqbIk+UhrzyoEPk6oFS5xFBTyB/ffYCa3tAnLHNrxlLF0otFvX05345ZT/eYi0hb6pMn1LVGRDwwL3Q6w0WYinqDc8CJWNWUYhwEOHucXErlQsD0FcqYNzUnE0V3KpmodQ6CGyKTe8W8UaqHRmo9zLYMdcBxX6hqe9R9s204Z15LVd7cH3TAwWDNBUU07rwiHT4hkZADEi9ikjDJoA+f20HdrfrTwvGXTKPiaaOdYWrUOTdt6Crs9LZ30t7n1pm+ofLFF1DuFKyHE+AMqS8HNinfUv8vSXrTyUBUYs6dxbnQ0ub/R8Bxw0+u40gfDWQbBXDcAw7YTAduKGe2ZTABxz3sCmszB5hhBzhchOlXV1LRRDG5HbDOzYu8NJD4ERyA0fp+C+3f0Ah1Wpp5m3jiyURaQXNuJuAA1JYNf6FjHzZoenEw/pbvir8M4BwAuxGhbydZrrX+n6FmwIm7UbDwM843PSrBTa4H3XBmx0HUGPWJbViD8RTMXNPGRXBxh2qwyT1J5Tq8+YUBP8Z5OhzUPq5tqmwQ3NJ5oCL1mteJa6+UjfoFJ+XNLVfeAi7hpfLpZ9Dky8Y4kZyMcALBpgBLnUPb/2YDHd5+yPQ7ldZV05iF0/woUQDRB48LIhdsypDTezqaSb0d3XTolQ3Ue+Roku7CeedSgfiYQ1S/XootDdCZ1Fr/iyR96WRwYOKWP6TSzU1qBwHOhEBYx0llN9V5DnAATtgvETidXITBgdL8wgBggn4pwNlJJ49rI/TANq5BuoAdKODCAGW20/QbzoeV5+SD7jfTFo7NtiEvzsiFsx9WPvYcHCqkpvwxOVQ+o5BGlYyiHPHJKkgs83DA4ILCHfIp0PDm2DKpv/ck7XjiHVWlt59bVUyFU6sou6SAsssKaESOeHrr6fXn5uQQWAJKrnPr+vhTavn9Rk+fupM35UzKHjtOPFktcT6Zo/ISoFaAiXoqkR3sHH7qflVN2vvcN39cAHA6UKGgG46DajpRY5RGB3X+OBDHEJ5bT8bp4CKRdNawRWkbZIIW8g4UbtBtQiDsi4i7B7hlNNBrpiD/WsCZnmKOsVYutyKPcsvFp1J8KvIpuziXnfs6/mk7Nb6sP3BgVHpZI/NzaFRFsfiUUHZlidiWivVzAJSAkwDgSS+Sy6C2t7fQse387zI9hV/ATtBTzbCbS60mbk48iTXn8SATBDiuM2BoicWnURPs5efnpxzaBgEuztCNe0IcVJ4byuILA75AmagJ1yXVsD1o/SFsRFnIm6oucQDH+TnIR6Zdzr+QCbsHuQgq6H4z7eHYbBvywiIwnFcTZz+s/IAjONV4qv3SmRU05qs1AkajDNBl0JEPm2n/79MHUcn8WVR47tmiComo0Yv0MqntzU3UsXNXqup97ueDnrzhh864yYISOtgK8TMtbjEpyoTdcNzylKiQgz3YRQdKBQ6u48n2ADwPil8jhIEknc7H+RPRT5SfvkmfOvAKGV4C8OhknO9PB9zgIxMCYREcJ4+8VNc06LfFKGsBBy+kmTJHZlL1kulUUIuffCnDVgGk/hP9tG/9dur49LO0tI8aXU6lFy2grFK8ECAx1HRAl0ntm7fS8W3v0SnxhoKhksIiAdzUAB1gICMQyE+fPp2W33gjG7nJdoUBjpvTQjnABvYwv2UmwKpGwA3QkSlVdBQGOOhAm/ADfzxphC4ktA+LZDHc5ACSKjIJ8ifKrV+3zlmrJ33pGBR/YAc2VZ9CBj6U9ZKy2HLDfOSHQQHn46S4gOOiGthD/bFGEVu0CXBGe+FfXJ+gFNYWzlbY/WbaMNuG82ERmFmesx9W/nON4NTK5o8vpolX1vlzXBJ2AkifvbuH2nceoBOtx9QikfcLZp9FRV/7ipCXDyPcubTeI+3U9dHH1C1+v9Z3pC2yvsEUDAKOahPwwbCQG47KG1eVT3XDcfNVannZIfCbU0AjKHGT/VKWAxxXVykfdk7KRJlTS+VP+BJPj2Vnl7rNbVDUxHUws2zU4yCQmBAIqou0g2uU7iJuANB8M01QvWCPa3+q+03WE1uzbcgLAxTOq4mzH1Y+NuBySvAQQU2Y7BdTX2oWJuZFRl9nL/X39Gtn1INRZfk0edl8keUCSM6hYYvJ/f4TfXTi8DEHdN1NR6hPPBlF6j3aIV5dFD6vUniOGLIuOM8HaCKSg158elta6cSeRuoX32wnOzvoVE8vqkz9ba10srvLsfN5/eHmxqLYxo2PTzrvAwsaAkaxCxnYDRv6cYBDx0FnNF/XlMom4IeOaC5FCSqXrj+lPkSVaBs3hOY6mCwXdxsEEhMCqQAHu6m+tLi6wT7eN4g2qSmoXpDh2j+sADdvxTTRTBdAZoRkDjkBqq6WLjry0WFq+e/9JgUdn1YsmEzl8yY5c3LesBL6HSApQ1hAU7Hb03aMug8epo6P91LXvuRlJlBeee1VNLIMb77Q6+vbEfoV8Mn29B1uod7mg9TbuJN69yevpYPu050QeXDvJAuyg9+R4p1xeBllOoCDXoAA395cZBhkF7DBz7KCXogoywUBDuXQGTEHFMUuoi3AhhsuSlvcFkMxDCfNN59wsmoenkC+KOqIdnKJ6+CcXJS8IJCkAzjYiwM5+fO6sOvEtYFr//AC3EqM3SWAJDgACn95hQMQAQ5s5TKLE23dYlHvLurY3675LSMzkybdcL5YXpLvyEtIsoDzno66euX73I5u+5Da/rhF04uD7MpKKr/qKrHnyvv1Qt0SwGQAJ+VRl67tf6auzb9L0j0YGejwABbAE9QxATZEMvIFjtxNHeeGi2ITbUVU89Yf/uDYDur8qk9SdRxEcqh70Nt7ATa0MxVIVZvcPnwZ9EZiKY+2IZIBuLmoTcphy3Vw9Xyc/dMNONgG2PGlBf9zCfcP5iMRFSKluk6mDq79ce43E97QHzbEjGI/rHzsIercFWcJmwIYSoTlwCIBNB1QEnAuAE+JMeCeV8RDBPFacTUVTBlDVZfMMfTqERtsSEDJdW6OrQRYuxr2UesbG1S1zn7h/PmUVzdX7LtQU0Hsg0y2x6gvIJiRQT2NH1Hnfz6fpHswM3CjAj7YtojO3ileCyPnxgbLLqAj591gW0ZNg20XnSxPzDFWiDk/2Dpdv7BQ/SR9CTvwKYCGNBi2VLtf5D7aiVer54trKeceUwH8i6zvYNhOA3BYipEAguj8AJ0DngSAuCGfhAvK9Rzrod1rNtPJnj6tPbU3XuxGcUokqAFIBZwXySm2RT0Ov/EmdTU0anqzxBC17Npvi+GxC6/wyM3V5wEbdgA5UW8ArrfR7RSaAXtgPWA9MGQ9EBtw594+SzRGdvxkwLkwSwBQk/OHsIf/Zy81b9LXpY1d+hXKn4Cffflyvh1XnzMk1UCqAw7QbH3lNer9TF9mUnnj9ygjR/5SwYgMnUhUtkfWW+gFvFEX57xYPNzTTZ2vP039nzUN2YtpK2Y9YD2geyA+4FbUCQ0Am4SCDwIAQUY86hDWlffB0tfVR7ueflOrSdmCGVR67lQdcF6k5uqVc26w4YHQAFT7nzaL9W7bNN0lV1xDWVX4zz0SYGY95bGrF3CTr2VyFaHup6jrnfXU8/4fNd32wHrAemDoeiA24Obcfo5oDQCnQCYQHJDxwSYjImwbX9ikrXPLn1RFVUvms/J+5Aa7RoRnAK57z176bP06zeMFX72Qcs5OzPHJ+mjlXL1OXRORmwS0qqi34X+pa8MLapbdtx6wHhjCHkgDcOcmIOQCLnjOLQEiBSQq4Pa9toU69jR7rsHvSyf+7WXJgBNAch4qOHpcmxKw5hAWx/09PdT0zNOeXuzknCl+OXHxZWJPRmoyktP1nRIRo6NbyLnJjdyQhwjuZMdROvbb0/M+uIQBu7EesB4YRA/EBtw54l/7ScB4w0SAQwGZe17CIhHBifOq/P61AnAN+nzW5Fuv8QEn5P3ITehyyis6NHs6uA6tflRzWXZVNRVe/jciz6ynPBZ6jTk3LPrV8eYetz/9T5pue2A9YD0wdD2QBuDmuaBKAMsbgjrACQFQQt6BnwDN/rV/EYDTF+hO/odvaaD059wkwIR+E2zKsYwQD61+RPO4C7jviDwJNEWffFLq1Q9FObS5yGt/6m5Ntz2wHrAeGLoeiA242beJ33gak/8OtJi5MTViM0F4AIBr1AFX892/phG5uQP6v6WYo2uuf1jzeGZOLpXccJvIU8AmH5KEzLlpShIHR20Ex7nF5lkPDEkPxAbctOV14uWW7pKLILBJkMiIClsXcIjA3KHrgXWbkyK4MVdcRLnVVZHn3HyAiogrASzY4f61X9FVfyd+tuUuQ3HqgohNRm+ifnqCPhGxIZBzkozoiNqfskNU6RW7tR4Y6h6IDbhxF9dS6awqY6jog0uN1HwAyaGhkHNgkkEH1wrANR7U/FN2wVw6YxZeU54sHz40BYBciEKupT753+Plnb+EcmaIByQJwEaZc5OVk3jD1s7BSa/YrfXA0PdAbMDljRb/h+Hb5yQA5wNLBZADMW9Oy5Vxz/vyB9f+KQlwuePHUOUVi51oT4JQ1WvOobmRWAJsTrjlgpH7135Z42qp4NLr/ajNqx8ukoqwoMcLdg5u6N/OtobWA7oHYgMOxasWTaLS2Vg4C2Ap0ROiswQ4vHxx7Mq5Q1OZD8B1Nh6AOi2VfE1EcbNn+nqd8i7EIgFO1Ke1/l81nfIgd/4lNGrWAi1ClOeibu0cXFRPWTnrgS/eA2kBDtWuvmwmFU6u1IaqauTmgkwAUA4JFRACVAfXbmIBB90Vl36dRk2oEXsxwKaAMOxf++Ut/g5lTcQLA5CiR26C3I68fYrqOM7+sR74UnggbcChdWMWTaWS2dVizx0aesPKxDEXuckI7pADOPGOuICUN7mWShZ/3Y/kJCATEaKMHrkh7OGnHgjQ6mYDcDkLr6TMbPFfukRWHMzZObhQ19qT1gNDygMDAhxakjumiIpmjKO88eWUVZgvchB1ucBLApyyvOTQ2o0iggsGHHRnV1ZQ3tRpNKKkjEaWlFJGrtDvAM4f9vKAux/FQ9OI0tE0YuxkGllZTSNGV1NmfqGQT406G8GFutWetB4YUh4YMOCGVGtsZawHrAesBxQPWMApzrC71gPWA8PLAxZww+t62tZYD1gPKB6wgFOcYXetB6wHhpcHLOCG1/W0rbEesB5QPGABpzjD7loPWA8MLw9YwA2v62lbYz1gPaB4wAJOcYbdtR6wHhheHrCAG17X07bGesB6QPGABZziDLtrPWA9MLw88H+vyX6COauh0wAAAABJRU5ErkJggg==;" vertex="1" parent="1">
          <mxGeometry x="70.91" y="380" width="138.67" height="40" as="geometry" />
        </mxCell>
      </root>
    </mxGraphModel>
  </diagram>
</mxfile>
